<svg width="694" height="208" viewBox="0 0 694 208" fill="none" xmlns="http://www.w3.org/2000/svg">
<path d="M556.15 175.885L555.501 157.227C564.911 157.714 570.914 157.389 575.133 147.005L576.917 143.111L538.141 62.151H563.451L588.275 118.288L609.204 62.151H633.217L596.387 153.171C588.599 172.802 574.971 176.859 556.15 175.885Z" fill="#FFFFFF"/>
<path d="M516.703 148.79C501.127 148.303 488.148 139.38 488.148 118.775V79.9979H474.681V62.151H488.148V48.5223L510.862 42.1948V62.151H530.331V79.9979H510.862V118.775C510.862 126.562 515.08 129.807 520.921 130.132C524.004 130.619 528.385 129.97 531.629 128.672L537.308 145.707C530.656 148.141 523.355 149.277 516.703 148.79Z" fill="#FFFFFF"/>
<path d="M436.393 148.141V62.1511H459.269V148.141H436.393ZM447.912 56.797C440.936 56.797 434.608 51.7674 434.608 43.9796C434.608 36.0296 440.936 31 447.912 31C454.402 31 460.892 36.0296 460.892 43.9796C460.892 51.7674 454.402 56.797 447.912 56.797Z" fill="#FFFFFF"/>
<path d="M334.048 148.141L367.308 104.173L335.021 62.151H361.629L379.476 87.4613L396.999 62.151H423.607L391.32 104.173L424.905 148.141H398.297L379.476 120.235L360.656 148.141H334.048Z" fill="#FFFFFF"/>
<path d="M283.043 148.79C255.623 148.79 236.479 131.754 236.479 104.984C236.479 78.3756 256.11 61.3398 283.043 61.3398C309.651 61.3398 329.121 78.3756 329.121 104.984C329.121 131.754 310.138 148.79 283.043 148.79ZM283.043 129.97C297.645 129.97 306.568 119.586 306.568 104.984C306.568 90.3817 297.645 80.3225 283.043 80.3225C268.279 80.3225 259.355 90.3817 259.355 104.984C259.355 119.586 268.279 129.97 283.043 129.97Z" fill="#FFFFFF"/>
<path d="M165.572 148.141V62.1512H181.959L185.366 69.1278C192.018 63.9359 200.779 61.34 209.216 61.5022C217.491 61.8267 225.116 64.2604 229.172 67.8298L220.898 84.5411C217.328 82.5941 212.948 81.4584 208.405 81.2962C200.942 80.9717 192.992 85.5146 188.449 91.0309V148.141H165.572Z" fill="#FFFFFF"/>
<path d="M61 175.885V62.1511H77.549L80.4694 68.3164C86.797 64.4225 97.1807 61.8266 104.32 61.8266C130.117 61.8266 147.801 78.5379 147.801 105.146C147.801 131.592 129.954 148.628 103.995 148.628C97.1807 148.628 89.3929 147.33 83.8766 144.41V175.885H61ZM105.131 130.456C116.488 129.483 125.249 122.506 125.249 106.282C125.249 91.842 119.571 81.6206 104.644 81.2961C98.1542 80.8093 88.4195 83.5675 83.8766 88.4349V124.778C88.9062 129.483 98.3164 130.781 105.131 130.456Z" fill="#FFFFFF"/>
<path d="M99.8552 158.018H539.855V176.018H99.8552V158.018Z" fill="#3B82FF"/>
</svg>





